<?xml version="1.0" encoding="utf-8"?>
<!-- Generator: Adobe Illustrator 21.1.0, SVG Export Plug-In . SVG Version: 6.00 Build 0)  -->
<!DOCTYPE svg PUBLIC "-//W3C//DTD SVG 1.1//EN" "http://www.w3.org/Graphics/SVG/1.1/DTD/svg11.dtd" [
	<!ENTITY st0 "fill:#C7BBA9;">
	<!ENTITY st1 "fill:#7E7568;">
	<!ENTITY st2 "fill:#2A2723;">
	<!ENTITY st3 "fill:#D5CCBE;">
	<!ENTITY st4 "fill:#565047;">
	<!ENTITY st5 "fill:#A99C8B;">
	<!ENTITY st6 "fill:#EF1616;stroke:#000000;stroke-miterlimit:10;">
]>
<svg version="1.1" xmlns="http://www.w3.org/2000/svg" xmlns:xlink="http://www.w3.org/1999/xlink" x="0px" y="0px"
	 viewBox="0 0 400 400" style="enable-background:new 0 0 400 400;" xml:space="preserve">
<g id="Layer_1">
	<polygon style="&st0;" points="260,193.3 148.8,325 258.2,261.9 	"/>
	<polygon style="&st1;" points="148.8,325 265.6,350.9 258.2,261.9 	"/>
	<polygon style="&st2;" points="265.6,350.9 347.2,193.3 258.2,261.9 	"/>
	<polygon style="&st0;" points="208.1,122.9 122.8,254.5 260,193.3 	"/>
	<polygon style="&st3;" points="122.8,254.5 148.8,325 260,193.3 	"/>
	<polygon style="&st4;" points="208.1,122.9 260,193.3 308.1,68.9 282.3,69.1 	"/>
	<polygon style="&st1;" points="282.3,69.1 308.1,68.9 290.7,49.6 283,29.8 250.8,35.8 234.1,50.6 	"/>
	<polygon style="&st5;" points="258.2,261.9 347.2,193.3 260,193.3 	"/>
	<polygon style="&st1;" points="347.2,193.3 362.4,139.8 347.3,82.2 260,193.3 	"/>
	<polygon style="&st1;" points="234.1,50.6 163.6,69.1 208.1,122.9 	"/>
	<polygon style="&st4;" points="384.1,193.2 392.7,179.7 362.4,139.8 347.2,193.3 	"/>
	<polygon style="&st5;" points="282.3,69.1 234.1,50.6 208.1,122.9 	"/>
	<polygon style="&st5;" points="244.7,10.6 198.8,29.4 250.8,35.8 	"/>
	<polygon style="&st0;" points="163.6,69.1 82,109.9 208.1,122.9 	"/>
	<polygon style="&st2;" points="82,109.9 46.8,197 122.8,167.4 	"/>
	<polygon style="&st1;" points="46.8,197 122.8,254.5 122.8,167.4 	"/>
	<polygon style="&st5;" points="122.8,167.4 122.8,254.5 208.1,122.9 	"/>
	<polygon style="&st1;" points="208.1,122.9 82,109.9 122.8,167.4 	"/>
	<polygon style="&st0;" points="347.3,82.2 308.1,68.9 260,193.3 	"/>
	<polygon style="&st4;" points="209.7,366.1 225.1,378.6 237.8,388 275.3,363.1 308.1,364.5 318.7,333.5 343.5,332.4 351,291.8 
		265.6,350.9 	"/>
	<polygon style="&st2;" points="148.8,325 123,363.7 146,387.6 172.6,378.6 209.7,366.1 265.6,350.9 	"/>
	<polygon style="&st4;" points="79.2,334.1 89.7,364.5 122.4,363.1 123,363.7 148.8,325 	"/>
	<polygon style="&st4;" points="234.1,50.6 250.8,35.8 198.8,29.4 163.6,69.1 	"/>
	<polygon style="&st5;" points="46.6,292 47.3,324.5 122.8,254.5 	"/>
	<polygon style="&st1;" points="384.1,193.2 351,291.8 379.3,275.2 382.1,246.7 400,210.9 	"/>
	<polygon style="&st5;" points="265.6,350.9 351,291.8 347.2,193.3 	"/>
	<polygon style="&st3;" points="347.2,193.3 351,291.8 384.1,193.2 	"/>
	<polygon style="&st1;" points="122.8,254.5 47.3,324.5 47.4,325.2 79.1,333.5 79.2,334.1 148.8,325 	"/>
	<polygon style="&st5;" points="163.6,69.1 100.1,58.4 67.4,62.3 82,109.9 	"/>
	<polygon style="&st4;" points="46.8,197 46.6,292 122.8,254.5 	"/>
	<polygon style="&st4;" points="50.7,115.4 50.9,116.3 34.9,140 8.6,148 23.1,190.9 82,109.9 	"/>
	<polygon style="&st1;" points="198.8,29.4 170,12.8 146,10.6 100.2,24.7 100.1,58.4 163.6,69.1 	"/>
	<polygon style="&st1;" points="67.4,62.3 67.1,62.3 43.8,84.6 50.7,115.4 82,109.9 	"/>
	<polygon style="&st6;" points="23.1,190.9 22.7,191.5 22.9,191.5 23.2,191.2 	"/>
	<polygon style="&st2;" points="22.9,191.5 1.6,215 27.1,243.6 18.5,275.2 46.6,292 46.8,197 	"/>
	<polygon style="&st1;" points="82,109.9 23.1,190.9 23.2,191.2 22.9,191.5 46.8,197 	"/>
</g>
<g id="Layer_2">
</g>
</svg>
