<?xml version="1.0" encoding="utf-8"?>
<!-- Generator: Adobe Illustrator 21.1.0, SVG Export Plug-In . SVG Version: 6.00 Build 0)  -->
<!DOCTYPE svg PUBLIC "-//W3C//DTD SVG 1.1//EN" "http://www.w3.org/Graphics/SVG/1.1/DTD/svg11.dtd" [
	<!ENTITY st0 "fill:#BC9D70;">
	<!ENTITY st1 "fill:#77603E;">
	<!ENTITY st2 "fill:#282015;">
	<!ENTITY st3 "fill:#CDB593;">
	<!ENTITY st4 "fill:#51412A;">
	<!ENTITY st5 "fill:#9E7F53;">
	<!ENTITY st6 "fill:#EF1616;stroke:#000000;stroke-miterlimit:10;">
]>
<svg version="1.1" xmlns="http://www.w3.org/2000/svg" xmlns:xlink="http://www.w3.org/1999/xlink" x="0px" y="0px"
	 viewBox="0 0 400 400" style="enable-background:new 0 0 400 400;" xml:space="preserve">
<g id="Layer_1">
	<polygon style="&st0;" points="258.7,196 150.4,324.2 256.9,262.8 	"/>
	<polygon style="&st1;" points="150.4,324.2 264.1,349.5 256.9,262.8 	"/>
	<polygon style="&st2;" points="264.1,349.5 343.5,196 256.9,262.8 	"/>
	<polygon style="&st0;" points="208.1,127.4 125.1,255.6 258.7,196 	"/>
	<polygon style="&st3;" points="125.1,255.6 150.4,324.2 258.7,196 	"/>
	<polygon style="&st4;" points="208.1,127.4 258.7,196 305.5,74.8 280.3,75 	"/>
	<polygon style="&st1;" points="280.3,75 305.5,74.8 288.6,56 281,36.8 249.7,42.7 233.4,57 	"/>
	<polygon style="&st5;" points="256.9,262.8 343.5,196 258.7,196 	"/>
	<polygon style="&st1;" points="343.5,196 358.4,143.9 343.6,87.8 258.7,196 	"/>
	<polygon style="&st1;" points="233.4,57 164.8,75 208.1,127.4 	"/>
	<polygon style="&st4;" points="379.5,195.9 387.9,182.8 358.4,143.9 343.5,196 	"/>
	<polygon style="&st5;" points="280.3,75 233.4,57 208.1,127.4 	"/>
	<polygon style="&st5;" points="243.8,18.1 199.1,36.4 249.7,42.7 	"/>
	<polygon style="&st0;" points="164.8,75 85.4,114.8 208.1,127.4 	"/>
	<polygon style="&st2;" points="85.4,114.8 51,199.6 125.1,170.7 	"/>
	<polygon style="&st1;" points="51,199.6 125.1,255.6 125.1,170.7 	"/>
	<polygon style="&st5;" points="125.1,170.7 125.1,255.6 208.1,127.4 	"/>
	<polygon style="&st1;" points="208.1,127.4 85.4,114.8 125.1,170.7 	"/>
	<polygon style="&st0;" points="343.6,87.8 305.5,74.8 258.7,196 	"/>
	<polygon style="&st4;" points="209.7,364.3 224.7,376.5 237,385.6 273.6,361.4 305.5,362.7 315.8,332.6 339.9,331.4 347.3,291.9 
		264.1,349.5 	"/>
	<polygon style="&st2;" points="150.4,324.2 125.2,361.9 147.7,385.2 173.6,376.5 209.7,364.3 264.1,349.5 	"/>
	<polygon style="&st4;" points="82.6,333.1 92.8,362.7 124.7,361.4 125.2,361.9 150.4,324.2 	"/>
	<polygon style="&st4;" points="233.4,57 249.7,42.7 199.1,36.4 164.8,75 	"/>
	<polygon style="&st5;" points="50.8,292.1 51.6,323.7 125.1,255.6 	"/>
	<polygon style="&st1;" points="379.5,195.9 347.3,291.9 374.8,275.8 377.6,248 395,213.2 	"/>
	<polygon style="&st5;" points="264.1,349.5 347.3,291.9 343.5,196 	"/>
	<polygon style="&st3;" points="343.5,196 347.3,291.9 379.5,195.9 	"/>
	<polygon style="&st1;" points="125.1,255.6 51.6,323.7 51.6,324.5 82.5,332.6 82.6,333.1 150.4,324.2 	"/>
	<polygon style="&st5;" points="164.8,75 103,64.6 71.1,68.4 85.4,114.8 	"/>
	<polygon style="&st4;" points="51,199.6 50.8,292.1 125.1,255.6 	"/>
	<polygon style="&st4;" points="54.8,120.2 55,121 39.4,144.1 13.9,151.9 28,193.7 85.4,114.8 	"/>
	<polygon style="&st1;" points="199.1,36.4 171,20.2 147.7,18.1 103.1,31.8 103,64.6 164.8,75 	"/>
	<polygon style="&st1;" points="71.1,68.4 70.8,68.5 48.2,90.1 54.8,120.2 85.4,114.8 	"/>
	<polygon style="&st6;" points="28,193.7 27.6,194.2 27.8,194.3 28.1,194 	"/>
	<polygon style="&st2;" points="27.8,194.3 7,217.1 31.9,245 23.5,275.8 50.8,292.1 51,199.6 	"/>
	<polygon style="&st1;" points="85.4,114.8 28,193.7 28.1,194 27.8,194.3 51,199.6 	"/>
</g>
<g id="Layer_2">
</g>
</svg>
