<?xml version="1.0" encoding="utf-8"?>
<!-- Generator: Adobe Illustrator 21.1.0, SVG Export Plug-In . SVG Version: 6.00 Build 0)  -->
<!DOCTYPE svg PUBLIC "-//W3C//DTD SVG 1.1//EN" "http://www.w3.org/Graphics/SVG/1.1/DTD/svg11.dtd" [
	<!ENTITY st0 "fill:#77603E;">
	<!ENTITY st1 "fill:#64513F;">
	<!ENTITY st2 "fill:#BC9D70;">
	<!ENTITY st3 "fill:#9E7F53;">
	<!ENTITY st4 "fill:#282015;">
	<!ENTITY st5 "fill:#51412A;">
]>
<svg version="1.1" id="Layer_1" xmlns="http://www.w3.org/2000/svg" xmlns:xlink="http://www.w3.org/1999/xlink" x="0px" y="0px"
	 viewBox="0 0 200 200" style="enable-background:new 0 0 200 200;" xml:space="preserve">
<polygon style="&st0;" points="106.3,63.1 40.2,20.5 76.1,114.6 "/>
<polygon style="&st1;" points="184.9,100.9 187.2,50 106.3,63.1 "/>
<polygon style="&st2;" points="119.5,0.6 86.7,12.2 40.2,20.5 106.3,63.1 "/>
<polygon style="&st3;" points="187.2,50 163.9,25.6 119.5,0.6 106.3,63.1 "/>
<polygon style="&st3;" points="195,125 76.1,114.6 106.3,63.1 "/>
<polygon style="&st4;" points="195,125 184.9,100.9 106.3,63.1 "/>
<polygon style="&st3;" points="42.5,131.4 42.8,185.4 109.9,199.9 76.1,114.6 "/>
<polygon style="&st4;" points="143.5,178.7 109.9,199.9 76.1,114.6 "/>
<polygon style="&st5;" points="195,125 188.6,139.8 176.3,175.6 143.5,178.7 76.1,114.6 "/>
<polygon style="&st2;" points="21.5,169 21.7,169.7 42.8,185.4 42.5,131.4 "/>
<polygon style="&st5;" points="40.2,20.5 24,32.3 17,95.9 76.1,114.6 "/>
<polygon style="&st0;" points="76.1,114.6 17,95.9 42.5,131.4 "/>
<polygon style="&st5;" points="17,95.9 5,123 21.5,169 42.5,131.4 "/>
</svg>
