<?xml version="1.0" encoding="utf-8"?>
<!-- Generator: Adobe Illustrator 21.1.0, SVG Export Plug-In . SVG Version: 6.00 Build 0)  -->
<!DOCTYPE svg PUBLIC "-//W3C//DTD SVG 1.1//EN" "http://www.w3.org/Graphics/SVG/1.1/DTD/svg11.dtd" [
	<!ENTITY st0 "fill:#595959;">
]>
<svg version="1.1" id="Layer_1" xmlns="http://www.w3.org/2000/svg" xmlns:xlink="http://www.w3.org/1999/xlink" x="0px" y="0px"
	 viewBox="0 0 250 250" style="enable-background:new 0 0 250 250;" xml:space="preserve">
<g>
	<path style="&st0;" d="M207.2,35l-3.6,15.6c7.5,10.7,11.2,16.1,18.7,26.9l15.8,2c4.4,20.3,4.4,20.3,8.9,40.6l-13.6,8.4
		c-2.3,12.9-3.5,19.4-5.8,32.2l9.8,12.6c-11.2,17.5-11.2,17.5-22.4,35l-15.6-3.6c-10.7,7.5-16.1,11.2-26.9,18.7l-2,15.8
		c-20.3,4.4-20.3,4.4-40.6,8.9l-8.4-13.6c-12.9-2.3-19.4-3.5-32.2-5.8l-12.6,9.8c-17.5-11.2-17.5-11.2-35-22.4l3.6-15.6
		c-7.5-10.7-11.2-16.1-18.7-26.9l-15.8-2C6.4,151.3,6.4,151.3,2,131l13.6-8.4c2.3-12.9,3.5-19.4,5.8-32.2l-9.8-12.6
		c11.2-17.5,11.2-17.5,22.4-35l15.6,3.6c10.7-7.5,16.1-11.2,26.9-18.7l2-15.9C98.7,7.4,98.7,7.4,119,3l8.5,13.6
		c12.9,2.3,19.4,3.5,32.2,5.8l12.6-9.8C189.7,23.8,189.8,23.8,207.2,35z"/>
</g>
</svg>
