<?xml version="1.0" encoding="utf-8"?>
<!-- Generator: Adobe Illustrator 21.1.0, SVG Export Plug-In . SVG Version: 6.00 Build 0)  -->
<svg version="1.1" id="Layer_1" xmlns="http://www.w3.org/2000/svg" xmlns:xlink="http://www.w3.org/1999/xlink" x="0px" y="0px"
	 viewBox="0 0 1000 1000" style="enable-background:new 0 0 1000 1000;" xml:space="preserve">
<style type="text/css">
	.st0{fill:#ED7D0C;stroke:#000000;stroke-miterlimit:10;}
	.st1{fill:#767374;}
	.st2{fill:#ADABAB;}
	.st3{fill:#918F90;}
	.st4{fill:#5A5758;}
	.st5{fill:#3F3B3C;}
</style>
<polygon class="st0" points="353,602.2 352.6,602.4 352.9,602.4 "/>
<path class="st1" d="M408.7,493.9c0-28.7,13.1-54.3,33.8-71L395,368l-42,234.2l80.5-45.8C418.1,540,408.7,518.1,408.7,493.9z"/>
<polygon class="st2" points="352.8,602.8 499.7,849.2 499.7,849.2 641.8,604.9 352.9,602.4 "/>
<polygon class="st0" points="352.6,602.4 352.8,602.8 352.9,602.4 "/>
<polygon class="st0" points="499.7,849.3 499.7,849.2 499.7,849.2 "/>
<polygon class="st0" points="601.9,366.7 601.5,366.7 601.6,367.2 "/>
<polygon class="st3" points="321.3,778.9 499.7,849.2 352.8,602.8 "/>
<polygon class="st3" points="499.8,849.3 671.6,776.3 641.8,604.9 499.7,849.2 "/>
<path class="st4" d="M499.7,584.9c-26.1,0-49.6-11-66.2-28.6L353,602.2l0,0.2l288.9,2.5l-74.7-49.8
	C550.5,573.4,526.4,584.9,499.7,584.9z"/>
<polygon class="st1" points="499.7,849.2 321.3,778.9 454.4,971.6 499.7,849.3 "/>
<path class="st4" d="M544,27.5l57.5,339.3l0.5,0l-0.4,0.5l40.3,237.7l29.8,171.4L547.5,971.4c48.6-0.2,49.3-12.9,82.3-46.6
	c37.4-38.1,104.3-100.2,104.2-143.6L544,27.5z"/>
<path class="st1" d="M590.7,493.9c0,23.5-8.9,45-23.6,61.2l74.7,49.8l-40.3-237.7l-43.3,56.9C578.1,440.8,590.7,465.9,590.7,493.9z"
	/>
<polygon class="st1" points="499.8,849.3 499.7,849.2 499.7,849.3 547.5,971.4 671.6,776.3 "/>
<polygon class="st4" points="454.4,971.6 547.5,971.4 499.7,849.3 "/>
<path class="st2" d="M442.5,422.9c0.9-0.7,1.9-1.3,2.7-1.9c15.2-11.4,34.1-18.1,54.5-18.1c22.3,0,42.7,8,58.6,21.2l43.3-56.9
	l-0.1-0.5L395,368L442.5,422.9z"/>
<path class="st4" d="M352.8,602.8l-0.3-0.5l0.4-0.2L395,368l60.5-340.2l-189,756.3c0.7,40.7,65.2,101.1,99,137.8
	c34,36.9,37.3,49.9,88.9,49.7L321.3,778.9L352.8,602.8z"/>
<polygon class="st3" points="601.5,366.7 544,27.5 455.4,27.8 395,368 "/>
<path class="st5" d="M408.7,493.9c0,24.2,9.4,46.1,24.8,62.4l0.1-0.1l-0.1,0.1c16.6,17.6,40.1,28.6,66.2,28.6
	c26.7,0,50.8-11.5,67.4-29.9L567,555l0.1,0.1c14.7-16.2,23.6-37.6,23.6-61.2c0-28-12.6-53.1-32.5-69.8
	c-15.8-13.3-36.3-21.2-58.6-21.2c-20.4,0-39.3,6.7-54.5,18.1c-0.9,0.7-1.9,1.2-2.7,1.9C421.8,439.6,408.7,465.2,408.7,493.9z
	 M499.7,417.8c42,0,76.1,34.1,76.1,76.1c0,42-34.1,76.1-76.1,76.1s-76.1-34.1-76.1-76.1C423.6,451.9,457.7,417.8,499.7,417.8z"/>
<circle class="st4" cx="499.7" cy="493.9" r="76.1"/>
</svg>
