<?xml version="1.0" encoding="utf-8"?>
<!-- Generator: Adobe Illustrator 21.1.0, SVG Export Plug-In . SVG Version: 6.00 Build 0)  -->
<!DOCTYPE svg PUBLIC "-//W3C//DTD SVG 1.1//EN" "http://www.w3.org/Graphics/SVG/1.1/DTD/svg11.dtd" [
	<!ENTITY st0 "fill:#B57947;">
	<!ENTITY st1 "fill:#383838;">
	<!ENTITY st2 "fill:#515151;">
	<!ENTITY st3 "fill:#5E5E5E;">
	<!ENTITY st4 "fill:#1E1E1E;">
	<!ENTITY st5 "font-family:'Silom';">
	<!ENTITY st6 "font-size:72.4098px;">
	<!ENTITY st7 "display:none;fill:#4F5E52;">
]>
<svg version="1.1" id="Layer_1" xmlns="http://www.w3.org/2000/svg" xmlns:xlink="http://www.w3.org/1999/xlink" x="0px" y="0px"
	 viewBox="0 0 300 150" style="enable-background:new 0 0 300 150;" xml:space="preserve">
<g>
	<path style="&st0;" d="M15,143c-3.9,0-7-3.1-7-7V13c0-3.9,3.1-7,7-7h270c3.9,0,7,3.1,7,7v123c0,3.9-3.1,7-7,7H15z"/>
	<path style="&st1;" d="M285,11c1.1,0,2,0.9,2,2v123c0,1.1-0.9,2-2,2H15c-1.1,0-2-0.9-2-2V13c0-1.1,0.9-2,2-2H285 M285,1H15
		C8.4,1,3,6.4,3,13v123c0,6.6,5.4,12,12,12h270c6.6,0,12-5.4,12-12V13C297,6.4,291.6,1,285,1L285,1z"/>
</g>
<g>
	<ellipse transform="matrix(0.3748 -0.9271 0.9271 0.3748 -6.7505 42.9895)" style="&st2;" cx="28.5" cy="26.5" rx="8.5" ry="8.5"/>
</g>
<path style="&st3;" d="M26.2,34.7l-2.1-0.8c-0.3-0.1-0.4-0.4-0.3-0.7l6-14.7c0.1-0.3,0.4-0.4,0.7-0.3l1.2,0.5l0.9,0.3
	c0.3,0.1,0.4,0.4,0.3,0.7l-6,14.7C26.8,34.7,26.5,34.8,26.2,34.7z"/>
<path style="&st3;" d="M20.1,24.5l0.8-2.1c0.1-0.3,0.4-0.4,0.7-0.3l14.7,6c0.3,0.1,0.4,0.4,0.3,0.7L36.2,30l-0.3,0.9
	c-0.1,0.3-0.4,0.4-0.7,0.3l-14.7-6C20.2,25.1,20,24.8,20.1,24.5z"/>
<g>
	<ellipse transform="matrix(0.109 -0.994 0.994 0.109 -98.3922 139.2905)" style="&st2;" cx="28.5" cy="124.5" rx="8.5" ry="8.5"/>
</g>
<path style="&st3;" d="M28.5,133.1l-2.2-0.2c-0.3,0-0.5-0.3-0.5-0.6l1.7-15.8c0-0.3,0.3-0.5,0.6-0.5l1.3,0.1l0.9,0.1
	c0.3,0,0.5,0.3,0.5,0.6l-1.7,15.8C29.1,132.9,28.8,133.1,28.5,133.1z"/>
<path style="&st3;" d="M19.9,124.9l0.2-2.2c0-0.3,0.3-0.5,0.6-0.5l15.8,1.7c0.3,0,0.5,0.3,0.5,0.6l-0.1,1.3l-0.1,0.9
	c0,0.3-0.3,0.5-0.6,0.5l-15.8-1.7C20.1,125.5,19.9,125.2,19.9,124.9z"/>
<g>
	
		<ellipse transform="matrix(0.9226 -0.3856 0.3856 0.9226 12.012 106.9212)" style="&st2;" cx="272.5" cy="23.5" rx="8.5" ry="8.5"/>
</g>
<path style="&st3;" d="M276.7,31l-2.1,0.9c-0.3,0.1-0.6,0-0.7-0.3l-6.1-14.7c-0.1-0.3,0-0.6,0.3-0.7l1.2-0.5l0.9-0.4
	c0.3-0.1,0.6,0,0.7,0.3l6.1,14.7C277.1,30.6,276.9,30.9,276.7,31z"/>
<path style="&st3;" d="M265.2,28l-0.9-2.1c-0.1-0.3,0-0.6,0.3-0.7l14.7-6.1c0.3-0.1,0.6,0,0.7,0.3l0.5,1.2l0.4,0.9
	c0.1,0.3,0,0.6-0.3,0.7l-14.7,6.1C265.6,28.4,265.3,28.3,265.2,28z"/>
<g>
	<ellipse transform="matrix(0.6106 -0.792 0.792 0.6106 7.529 264.3483)" style="&st2;" cx="272.6" cy="124.5" rx="8.5" ry="8.5"/>
</g>
<path style="&st3;" d="M265.3,120.1l1.4-1.8c0.2-0.2,0.5-0.3,0.8-0.1l12.6,9.7c0.2,0.2,0.3,0.5,0.1,0.8l-0.8,1l-0.6,0.7
	c-0.2,0.2-0.5,0.3-0.8,0.1l-12.6-9.7C265.1,120.7,265.1,120.3,265.3,120.1z"/>
<path style="&st3;" d="M276.7,117l1.8,1.4c0.2,0.2,0.3,0.5,0.1,0.8l-9.7,12.6c-0.2,0.2-0.5,0.3-0.8,0.1l-1-0.8l-0.7-0.6
	c-0.2-0.2-0.3-0.5-0.1-0.8l9.7-12.6C276.1,116.9,276.5,116.8,276.7,117z"/>
<text transform="matrix(1 0 0 1 58.5352 99.4648)" style="&st4; &st5; &st6;">PLAY</text>
<text transform="matrix(1 0 0 1 49.5352 93.4648)" style="&st7; &st5; &st6;">PLAY</text>
</svg>
