<?xml version="1.0" encoding="utf-8"?>
<!-- Generator: Adobe Illustrator 21.1.0, SVG Export Plug-In . SVG Version: 6.00 Build 0)  -->
<!DOCTYPE svg PUBLIC "-//W3C//DTD SVG 1.1//EN" "http://www.w3.org/Graphics/SVG/1.1/DTD/svg11.dtd" [
	<!ENTITY st0 "fill:#C7BBA9;">
	<!ENTITY st1 "fill:#50286B;">
	<!ENTITY st2 "fill:#2A2723;">
	<!ENTITY st3 "fill:#B71650;">
	<!ENTITY st4 "fill:#392446;">
	<!ENTITY st5 "fill:#7E7568;">
	<!ENTITY st6 "fill:#A99C8B;">
	<!ENTITY st7 "fill:#565047;">
	<!ENTITY st8 "fill:#D4145A;">
	<!ENTITY st9 "fill:#662D91;">
	<!ENTITY st10 "fill:#D5CCBE;">
	<!ENTITY st11 "fill:#991847;">
	<!ENTITY st12 "fill:#EF1616;stroke:#000000;stroke-miterlimit:10;">
]>
<svg version="1.1" xmlns="http://www.w3.org/2000/svg" xmlns:xlink="http://www.w3.org/1999/xlink" x="0px" y="0px"
	 viewBox="0 0 400 400" style="enable-background:new 0 0 400 400;" xml:space="preserve">
<g id="Layer_1">
	<polygon style="&st0;" points="259,194.3 147.8,326 257.2,262.9 	"/>
	<polygon style="&st1;" points="147.8,326 264.6,351.9 257.2,262.9 	"/>
	<polygon style="&st2;" points="264.6,351.9 346.2,194.3 257.2,262.9 	"/>
	<polygon style="&st0;" points="207.1,123.9 121.8,255.5 259,194.3 	"/>
	<polygon style="&st3;" points="121.8,255.5 147.8,326 259,194.3 	"/>
	<polygon style="&st4;" points="207.1,123.9 259,194.3 307.1,69.9 281.3,70.1 	"/>
	<polygon style="&st5;" points="281.3,70.1 307.1,69.9 289.7,50.6 282,30.8 249.8,36.8 233.1,51.6 	"/>
	<polygon style="&st6;" points="257.2,262.9 346.2,194.3 259,194.3 	"/>
	<polygon style="&st3;" points="346.2,194.3 361.4,140.8 346.3,83.2 259,194.3 	"/>
	<polygon style="&st3;" points="233.1,51.6 162.6,70.1 207.1,123.9 	"/>
	<polygon style="&st7;" points="383.1,194.2 391.7,180.7 361.4,140.8 346.2,194.3 	"/>
	<polygon style="&st8;" points="281.3,70.1 233.1,51.6 207.1,123.9 	"/>
	<polygon style="&st6;" points="243.7,11.6 197.8,30.4 249.8,36.8 	"/>
	<polygon style="&st1;" points="162.6,70.1 81,110.9 207.1,123.9 	"/>
	<polygon style="&st2;" points="81,110.9 45.8,198 121.8,168.4 	"/>
	<polygon style="&st3;" points="45.8,198 121.8,255.5 121.8,168.4 	"/>
	<polygon style="&st9;" points="121.8,168.4 121.8,255.5 207.1,123.9 	"/>
	<polygon style="&st5;" points="207.1,123.9 81,110.9 121.8,168.4 	"/>
	<polygon style="&st0;" points="346.3,83.2 307.1,69.9 259,194.3 	"/>
	<polygon style="&st7;" points="208.7,367.1 224.1,379.6 236.8,389 274.3,364.1 307.1,365.5 317.7,334.5 342.5,333.4 350,292.8 
		264.6,351.9 	"/>
	<polygon style="&st2;" points="147.8,326 122,364.7 145,388.6 171.6,379.6 208.7,367.1 264.6,351.9 	"/>
	<polygon style="&st7;" points="78.2,335.1 88.7,365.5 121.4,364.1 122,364.7 147.8,326 	"/>
	<polygon style="&st9;" points="233.1,51.6 249.8,36.8 197.8,30.4 162.6,70.1 	"/>
	<polygon style="&st6;" points="45.6,293 46.3,325.5 121.8,255.5 	"/>
	<polygon style="&st9;" points="383.1,194.2 350,292.8 378.3,276.2 381.1,247.7 399,211.9 	"/>
	<polygon style="&st3;" points="264.6,351.9 350,292.8 346.2,194.3 	"/>
	<polygon style="&st10;" points="346.2,194.3 350,292.8 383.1,194.2 	"/>
	<polygon style="&st11;" points="121.8,255.5 46.3,325.5 46.4,326.2 78.1,334.5 78.2,335.1 147.8,326 	"/>
	<polygon style="&st6;" points="162.6,70.1 99.1,59.4 66.4,63.3 81,110.9 	"/>
	<polygon style="&st1;" points="45.8,198 45.6,293 121.8,255.5 	"/>
	<polygon style="&st7;" points="49.7,116.4 49.9,117.3 33.9,141 7.6,149 22.1,191.9 81,110.9 	"/>
	<polygon style="&st11;" points="197.8,30.4 169,13.8 145,11.6 99.2,25.7 99.1,59.4 162.6,70.1 	"/>
	<polygon style="&st5;" points="66.4,63.3 66.1,63.3 42.8,85.6 49.7,116.4 81,110.9 	"/>
	<polygon style="&st12;" points="22.1,191.9 21.7,192.5 21.9,192.5 22.2,192.2 	"/>
	<polygon style="&st2;" points="21.9,192.5 0.6,216 26.1,244.6 17.5,276.2 45.6,293 45.8,198 	"/>
	<polygon style="&st5;" points="81,110.9 22.1,191.9 22.2,192.2 21.9,192.5 45.8,198 	"/>
</g>
<g id="Layer_2">
</g>
</svg>
